<svg width="174" height="132" viewBox="0 0 174 132" fill="none" xmlns="http://www.w3.org/2000/svg">
<path d="M0 52C0 49.2386 2.23858 47 5 47H25C27.7614 47 30 49.2386 30 52V132H0V52Z" fill="#D7EAE7"/>
<path d="M144 52C144 49.2386 146.239 47 149 47H169C171.761 47 174 49.2386 174 52V132H144V52Z" fill="#D7EAE7"/>
<path d="M48 26C48 23.2386 50.2386 21 53 21H73C75.7614 21 78 23.2386 78 26V132H48V26Z" fill="#194965"/>
<path d="M96 5C96 2.23858 98.2386 0 101 0H121C123.761 0 126 2.23858 126 5V132H96V5Z" fill="#03314B"/>
</svg>
