<svg width="18" height="18" viewBox="0 0 18 18" fill="none" xmlns="http://www.w3.org/2000/svg">
<path d="M16.8035 15.4197V9.23574C16.8035 8.80551 16.7158 8.3798 16.5455 7.98469C16.3753 7.58957 16.1261 7.23338 15.8134 6.93791L9.98745 1.43198C9.69402 1.15457 9.30554 1 8.90175 1C8.49795 1 8.10947 1.15457 7.81605 1.43198L1.99009 6.93791C1.67736 7.23338 1.42824 7.58957 1.25799 7.98469C1.08774 8.3798 0.999954 8.80551 1 9.23574V15.4197C1 15.8388 1.1665 16.2408 1.46287 16.5371C1.75925 16.8335 2.16121 17 2.58035 17H15.2231C15.6423 17 16.0442 16.8335 16.3406 16.5371C16.637 16.2408 16.8035 15.8388 16.8035 15.4197Z" fill="#03314B" stroke="#03314B" stroke-width="1.5" stroke-linecap="round" stroke-linejoin="round"/>
<rect x="7" y="11" width="3" height="4" fill="white"/>
</svg>
