<svg width="21" height="26" viewBox="0 0 21 26" fill="none" xmlns="http://www.w3.org/2000/svg">
<path d="M8.33704 6.31223C8.51135 5.92452 8.81035 5.59249 9.19571 5.3587C9.58108 5.1249 10.0352 5 10.5 5C10.9648 5 11.4189 5.1249 11.8043 5.3587C12.1897 5.59249 12.4887 5.92452 12.663 6.31223C14.3881 6.73921 15.9099 7.66403 16.9945 8.94466C18.079 10.2253 18.6665 11.7909 18.6665 13.4011V18.3324L20.8038 21.2175C20.9211 21.3756 20.9884 21.5594 20.9986 21.7493C21.0089 21.9391 20.9617 22.1279 20.862 22.2955C20.7624 22.4631 20.614 22.6032 20.4328 22.7009C20.2517 22.7986 20.0444 22.8501 19.8332 22.8501H14.5424C14.402 23.7248 13.916 24.5246 13.1736 25.1031C12.4312 25.6816 11.482 26 10.5 26C9.51796 26 8.5688 25.6816 7.82639 25.1031C7.08398 24.5246 6.59804 23.7248 6.45757 22.8501H1.16682C0.955609 22.8501 0.748349 22.7986 0.567155 22.7009C0.38596 22.6032 0.237629 22.4631 0.137986 22.2955C0.038343 22.1279 -0.00887323 21.9391 0.00137413 21.7493C0.0116215 21.5594 0.0789481 21.3756 0.196171 21.2175L2.33347 18.3324V13.4011C2.33347 10.0162 4.87676 7.16474 8.33704 6.31223ZM8.85036 22.8501C8.97085 23.1573 9.19427 23.4234 9.48983 23.6116C9.78539 23.7998 10.1385 23.9008 10.5006 23.9008C10.8626 23.9008 11.2158 23.7998 11.5113 23.6116C11.8069 23.4234 12.0303 23.1573 12.1508 22.8501H8.84919H8.85036ZM10.5 8.15164C8.95293 8.15164 7.46922 8.70471 6.37528 9.68917C5.28134 10.6736 4.66676 12.0088 4.66676 13.4011V18.6505C4.66682 18.8579 4.59862 19.0607 4.47077 19.2332L3.34729 20.7503H17.6515L16.5281 19.2332C16.4006 19.0606 16.3328 18.8578 16.3332 18.6505V13.4011C16.3332 12.0088 15.7187 10.6736 14.6247 9.68917C13.5308 8.70471 12.0471 8.15164 10.5 8.15164Z" fill="white"/>
<circle cx="9.5" cy="4.5" r="4.5" fill="#FFB800"/>
</svg>
