<svg width="35" height="35" viewBox="0 0 35 35" fill="none" xmlns="http://www.w3.org/2000/svg">
<circle cx="17.5" cy="17.5" r="17.5" fill="#17D097"/>
<path d="M12.0235 15.3183H22.7286L21.4111 16.3065C21.3246 16.3714 21.2517 16.4527 21.1966 16.5457C21.1415 16.6388 21.1053 16.7418 21.09 16.8488C21.0747 16.9559 21.0806 17.0649 21.1075 17.1697C21.1343 17.2744 21.1815 17.3729 21.2464 17.4594C21.3231 17.5616 21.4225 17.6446 21.5369 17.7018C21.6512 17.759 21.7773 17.7888 21.9052 17.7888C22.0833 17.7888 22.2567 17.731 22.3992 17.6241L25.6931 15.1536C25.7939 15.0768 25.8755 14.9777 25.9317 14.8642C25.9879 14.7506 26.0171 14.6257 26.0171 14.499C26.0171 14.3723 25.9879 14.2473 25.9317 14.1338C25.8755 14.0202 25.7939 13.9212 25.6931 13.8443L22.5145 11.3739C22.342 11.2396 22.1232 11.1793 21.9062 11.2063C21.6892 11.2334 21.4919 11.3455 21.3576 11.518C21.2232 11.6905 21.163 11.9094 21.19 12.1263C21.217 12.3433 21.3291 12.5407 21.5017 12.675L22.7945 13.6714H12.0235C11.8051 13.6714 11.5956 13.7581 11.4412 13.9126C11.2868 14.067 11.2 14.2765 11.2 14.4949C11.2 14.7133 11.2868 14.9227 11.4412 15.0771C11.5956 15.2316 11.8051 15.3183 12.0235 15.3183ZM25.1991 21.0826H14.4939L15.8115 20.0945C15.9862 19.9634 16.1017 19.7684 16.1326 19.5522C16.1635 19.336 16.1072 19.1163 15.9762 18.9416C15.8451 18.7669 15.65 18.6514 15.4338 18.6205C15.2176 18.5896 14.998 18.6459 14.8233 18.7769L11.5294 21.2473C11.4287 21.3242 11.3471 21.4232 11.2909 21.5368C11.2347 21.6503 11.2055 21.7753 11.2055 21.902C11.2055 22.0287 11.2347 22.1537 11.2909 22.2672C11.3471 22.3808 11.4287 22.4798 11.5294 22.5567L14.708 25.0271C14.8517 25.1386 15.0284 25.1994 15.2103 25.2C15.3361 25.1997 15.4601 25.1706 15.5729 25.1149C15.6856 25.0593 15.7842 24.9785 15.8609 24.8789C15.9946 24.7072 16.0549 24.4896 16.0287 24.2735C16.0025 24.0575 15.8918 23.8607 15.7209 23.726L14.428 22.7296H25.1991C25.4174 22.7296 25.6269 22.6428 25.7813 22.4884C25.9358 22.334 26.0225 22.1245 26.0225 21.9061C26.0225 21.6877 25.9358 21.4783 25.7813 21.3238C25.6269 21.1694 25.4174 21.0826 25.1991 21.0826Z" fill="white"/>
</svg>
